<svg width="1280" height="640" viewBox="0 0 1280 640" xmlns="http://www.w3.org/2000/svg" role="img" aria-label="Mohammed Thowfik I, Cybersecurity Student, GitHub profile banner">
<title>Mohammed Thowfik I — Cybersecurity Student</title>
<defs>
  <linearGradient id="bgGrad" x1="0%" y1="0%" x2="100%" y2="100%">
    <stop offset="0%" stop-color="#FFFFFF"/>
    <stop offset="100%" stop-color="#F5F7FA"/>
  </linearGradient>
  <linearGradient id="accentGrad" x1="0%" y1="0%" x2="100%" y2="100%">
    <stop offset="0%" stop-color="#2563EB"/>
    <stop offset="100%" stop-color="#60A5FA"/>
  </linearGradient>
  <linearGradient id="panelGrad" x1="0%" y1="0%" x2="100%" y2="100%">
    <stop offset="0%" stop-color="#F5F7FA"/>
    <stop offset="100%" stop-color="#EEF2F7"/>
  </linearGradient>
  <pattern id="dotGrid" width="26" height="26" patternUnits="userSpaceOnUse">
    <circle cx="1.2" cy="1.2" r="1.2" fill="#D1D5DB" opacity="0.55"/>
  </pattern>
  <filter id="softShadow" x="-20%" y="-20%" width="140%" height="140%">
    <feDropShadow dx="0" dy="2" stdDeviation="4" flood-color="#111827" flood-opacity="0.10"/>
  </filter>
  <clipPath id="canvasClip"><rect x="0" y="0" width="1280" height="640" rx="18"/></clipPath>
</defs>

<g clip-path="url(#canvasClip)">
<rect width="1280" height="640" fill="url(#bgGrad)"/>
<rect width="1280" height="640" fill="url(#dotGrid)"/>

<!-- subtle network lines top -->
<g stroke="#D1D5DB" stroke-width="1" opacity="0.5">
  <line x1="0" y1="60" x2="1280" y2="60"/>
  <line x1="0" y1="580" x2="1280" y2="580"/>
</g>

<!-- subtle hexagon outlines background -->
<g fill="none" stroke="#2563EB" stroke-width="1.2" opacity="0.08">
  <polygon points="150,40 190,64 190,112 150,136 110,112 110,64"/>
  <polygon points="60,420 100,444 100,492 60,516 20,492 20,444"/>
  <polygon points="1080,40 1120,64 1120,112 1080,136 1040,112 1040,64"/>
</g>

<!-- ===================== LEFT CONTENT ===================== -->
<text x="60" y="128" font-family="Segoe UI, Arial, sans-serif" font-size="52" font-weight="700" fill="#111827">Mohammed Thowfik I</text>

<rect x="60" y="146" width="230" height="6" rx="3" fill="url(#accentGrad)"/>

<text x="60" y="185" font-family="Segoe UI, Arial, sans-serif" font-size="28" font-weight="600" fill="#2563EB">Cybersecurity Student</text>

<text x="60" y="212" font-family="Segoe UI, Arial, sans-serif" font-size="17" font-weight="400" fill="#4B5563">B.E. Computer Science and Engineering (Cyber Security)</text>

<text x="60" y="236" font-family="Segoe UI, Arial, sans-serif" font-size="15" font-weight="400" fill="#6B7280">KGiSL Institute of Technology · Coimbatore, Tamil Nadu</text>

<text x="60" y="274" font-family="Segoe UI, Arial, sans-serif" font-size="21" font-style="italic" font-weight="400" fill="#111827">"Securing today's systems for tomorrow's world."</text>

<text x="60" y="304" font-family="Segoe UI, Arial, sans-serif" font-size="13" font-weight="700" letter-spacing="1.5" fill="#2563EB">TECH STACK</text>

<!-- ===================== TECH BADGES ===================== -->
<g font-family="Segoe UI, Arial, sans-serif" font-size="15" font-weight="600">
  <!-- row 1 -->
  <g><rect x="60" y="320" width="80" height="34" rx="17" fill="#E5E7EB" stroke="#D1D5DB"/><text x="100" y="342" text-anchor="middle" fill="#1F2937">Python</text></g>
  <g><rect x="150" y="320" width="40" height="34" rx="17" fill="#E5E7EB" stroke="#D1D5DB"/><text x="170" y="342" text-anchor="middle" fill="#1F2937">C</text></g>
  <g><rect x="200" y="320" width="56" height="34" rx="17" fill="#E5E7EB" stroke="#D1D5DB"/><text x="228" y="342" text-anchor="middle" fill="#1F2937">C++</text></g>
  <g><rect x="266" y="320" width="72" height="34" rx="17" fill="#E5E7EB" stroke="#D1D5DB"/><text x="302" y="342" text-anchor="middle" fill="#1F2937">Linux</text></g>
  <g><rect x="348" y="320" width="120" height="34" rx="17" fill="#E5E7EB" stroke="#D1D5DB"/><text x="408" y="342" text-anchor="middle" fill="#1F2937">Kali Linux</text></g>
  <g><rect x="478" y="320" width="56" height="34" rx="17" fill="#E5E7EB" stroke="#D1D5DB"/><text x="506" y="342" text-anchor="middle" fill="#1F2937">Git</text></g>
  <g><rect x="544" y="320" width="80" height="34" rx="17" fill="#E5E7EB" stroke="#D1D5DB"/><text x="584" y="342" text-anchor="middle" fill="#1F2937">GitHub</text></g>
  <!-- row 2 -->
  <g><rect x="60" y="364" width="80" height="34" rx="17" fill="#E5E7EB" stroke="#D1D5DB"/><text x="100" y="386" text-anchor="middle" fill="#1F2937">Docker</text></g>
  <g><rect x="150" y="364" width="104" height="34" rx="17" fill="#E5E7EB" stroke="#D1D5DB"/><text x="202" y="386" text-anchor="middle" fill="#1F2937">Wireshark</text></g>
  <g><rect x="264" y="364" width="64" height="34" rx="17" fill="#E5E7EB" stroke="#D1D5DB"/><text x="296" y="386" text-anchor="middle" fill="#1F2937">Nmap</text></g>
  <g><rect x="338" y="364" width="112" height="34" rx="17" fill="#E5E7EB" stroke="#D1D5DB"/><text x="394" y="386" text-anchor="middle" fill="#1F2937">Burp Suite</text></g>
  <g><rect x="460" y="364" width="112" height="34" rx="17" fill="#E5E7EB" stroke="#D1D5DB"/><text x="516" y="386" text-anchor="middle" fill="#1F2937">Metasploit</text></g>
  <g><rect x="582" y="364" width="72" height="34" rx="17" fill="#E5E7EB" stroke="#D1D5DB"/><text x="618" y="386" text-anchor="middle" fill="#1F2937">OWASP</text></g>
  <!-- row 3 -->
  <g><rect x="60" y="408" width="72" height="34" rx="17" fill="#E5E7EB" stroke="#D1D5DB"/><text x="96" y="430" text-anchor="middle" fill="#1F2937">React</text></g>
  <g><rect x="142" y="408" width="96" height="34" rx="17" fill="#E5E7EB" stroke="#D1D5DB"/><text x="190" y="430" text-anchor="middle" fill="#1F2937">Firebase</text></g>
  <g><rect x="248" y="408" width="88" height="34" rx="17" fill="#E5E7EB" stroke="#D1D5DB"/><text x="292" y="430" text-anchor="middle" fill="#1F2937">FastAPI</text></g>
  <g><rect x="346" y="408" width="112" height="34" rx="17" fill="#E5E7EB" stroke="#D1D5DB"/><text x="402" y="430" text-anchor="middle" fill="#1F2937">PostgreSQL</text></g>
  <!-- row 4 -->
  <g><rect x="60" y="452" width="216" height="34" rx="17" fill="#E5E7EB" stroke="#D1D5DB"/><text x="168" y="474" text-anchor="middle" fill="#1F2937">Artificial Intelligence</text></g>
  <g><rect x="286" y="452" width="112" height="34" rx="17" fill="#E5E7EB" stroke="#D1D5DB"/><text x="342" y="474" text-anchor="middle" fill="#1F2937">Blockchain</text></g>
</g>

<text x="60" y="508" font-family="Segoe UI, Arial, sans-serif" font-size="13" font-weight="700" letter-spacing="1.5" fill="#2563EB">INTERESTS</text>

<!-- ===================== INTERESTS ===================== -->
<g font-family="Segoe UI, Arial, sans-serif" font-size="13" font-weight="500">
  <!-- row 1 -->
  <g><rect x="60" y="520" width="137" height="30" rx="15" fill="#FFFFFF" stroke="#D1D5DB"/><circle cx="78" cy="535" r="6" fill="#2563EB"/><text x="94" y="539" fill="#1F2937">Cybersecurity</text></g>
  <g><rect x="207" y="520" width="151" height="30" rx="15" fill="#FFFFFF" stroke="#D1D5DB"/><circle cx="225" cy="535" r="6" fill="#2563EB"/><text x="241" y="539" fill="#1F2937">Ethical Hacking</text></g>
  <g><rect x="368" y="520" width="179" height="30" rx="15" fill="#FFFFFF" stroke="#D1D5DB"/><circle cx="386" cy="535" r="6" fill="#2563EB"/><text x="402" y="539" fill="#1F2937">Penetration Testing</text></g>
  <!-- row 2 -->
  <g><rect x="60" y="558" width="165" height="30" rx="15" fill="#FFFFFF" stroke="#D1D5DB"/><circle cx="78" cy="573" r="6" fill="#2563EB"/><text x="94" y="577" fill="#1F2937">Digital Forensics</text></g>
  <g><rect x="235" y="558" width="158" height="30" rx="15" fill="#FFFFFF" stroke="#D1D5DB"/><circle cx="253" cy="573" r="6" fill="#2563EB"/><text x="269" y="577" fill="#1F2937">Network Security</text></g>
  <g><rect x="403" y="558" width="144" height="30" rx="15" fill="#FFFFFF" stroke="#D1D5DB"/><circle cx="421" cy="573" r="6" fill="#2563EB"/><text x="437" y="577" fill="#1F2937">Threat Hunting</text></g>
  <!-- row 3 -->
  <g><rect x="60" y="596" width="123" height="30" rx="15" fill="#FFFFFF" stroke="#D1D5DB"/><circle cx="78" cy="611" r="6" fill="#2563EB"/><text x="94" y="615" fill="#1F2937">Open Source</text></g>
  <g><rect x="193" y="596" width="158" height="30" rx="15" fill="#FFFFFF" stroke="#D1D5DB"/><circle cx="211" cy="611" r="6" fill="#2563EB"/><text x="227" y="615" fill="#1F2937">Capture The Flag</text></g>
  <g><rect x="361" y="596" width="123" height="30" rx="15" fill="#FFFFFF" stroke="#D1D5DB"/><circle cx="379" cy="611" r="6" fill="#2563EB"/><text x="395" y="615" fill="#1F2937">AI Security</text></g>
  <g><rect x="494" y="596" width="123" height="30" rx="15" fill="#FFFFFF" stroke="#D1D5DB"/><circle cx="512" cy="611" r="6" fill="#2563EB"/><text x="528" y="615" fill="#1F2937">Bug Hunting</text></g>
</g>

<!-- ===================== RIGHT ILLUSTRATION ===================== -->
<g aria-label="cybersecurity themed illustration">
  <rect x="720" y="80" width="500" height="480" rx="24" fill="url(#panelGrad)" stroke="#D1D5DB" filter="url(#softShadow)"/>

  <!-- circuit paths -->
  <g fill="none" stroke="#2563EB" stroke-width="1.4" opacity="0.35">
    <path d="M760 140 H860 V180 H940"/>
    <path d="M1180 500 H1080 V460 H1000"/>
    <path d="M760 480 H820 V520"/>
  </g>
  <g fill="#2563EB" opacity="0.5">
    <circle cx="760" cy="140" r="4"/>
    <circle cx="940" cy="180" r="4"/>
    <circle cx="1180" cy="500" r="4"/>
    <circle cx="1000" cy="460" r="4"/>
  </g>

  <!-- hexagon outlines -->
  <g fill="none" stroke="#2563EB" stroke-width="1.5" opacity="0.25">
    <polygon points="1150,120 1180,138 1180,174 1150,192 1120,174 1120,138"/>
    <polygon points="800,470 826,485 826,515 800,530 774,515 774,485"/>
  </g>

  <!-- cloud -->
  <g transform="translate(790,140)" fill="#FFFFFF" stroke="#D1D5DB">
    <ellipse cx="0" cy="10" rx="34" ry="20"/>
    <ellipse cx="26" cy="4" rx="24" ry="16"/>
    <ellipse cx="-24" cy="6" rx="20" ry="14"/>
    <animateTransform attributeName="transform" type="translate" values="790,140; 790,132; 790,140" dur="8s" repeatCount="indefinite"/>
  </g>

  <!-- terminal window -->
  <g transform="translate(1000,120)">
    <rect x="0" y="0" width="150" height="96" rx="10" fill="#111827" opacity="0.92"/>
    <circle cx="16" cy="16" r="4" fill="#F87171"/>
    <circle cx="30" cy="16" r="4" fill="#FBBF24"/>
    <circle cx="44" cy="16" r="4" fill="#34D399"/>
    <text x="14" y="42" font-family="Consolas, monospace" font-size="12" fill="#38BDF8">$ whoami</text>
    <text x="14" y="60" font-family="Consolas, monospace" font-size="12" fill="#F8FAFC">thowfik</text>
    <rect x="14" y="70" width="8" height="12" fill="#38BDF8">
      <animate attributeName="opacity" values="1;0;1" dur="1.2s" repeatCount="indefinite"/>
    </rect>
  </g>

  <!-- central shield with lock -->
  <g transform="translate(970,330)">
    <path d="M0,-95 L78,-60 V20 C78,80 40,120 0,140 C-40,120 -78,80 -78,20 V-60 Z"
          fill="#FFFFFF" stroke="url(#accentGrad)" stroke-width="4" filter="url(#softShadow)"/>
    <rect x="-26" y="-8" width="52" height="42" rx="6" fill="#2563EB"/>
    <path d="M-16,-8 V-24 a16,16 0 0 1 32,0 V-8" fill="none" stroke="#2563EB" stroke-width="6"/>
    <circle cx="0" cy="10" r="5" fill="#FFFFFF"/>
    <animateTransform attributeName="transform" type="translate" values="970,330;970,322;970,330" dur="9s" repeatCount="indefinite"/>
  </g>

  <!-- network nodes -->
  <g stroke="#2563EB" stroke-width="1.4" opacity="0.55" fill="none">
    <line x1="860" y1="470" x2="940" y2="420"/>
    <line x1="940" y1="420" x2="1040" y2="440"/>
    <line x1="1040" y1="440" x2="1120" y2="400"/>
  </g>
  <g fill="url(#accentGrad)">
    <circle cx="860" cy="470" r="6"><animate attributeName="r" values="6;9;6" dur="4s" repeatCount="indefinite"/></circle>
    <circle cx="940" cy="420" r="6"><animate attributeName="r" values="6;9;6" dur="5s" repeatCount="indefinite"/></circle>
    <circle cx="1040" cy="440" r="6"><animate attributeName="r" values="6;9;6" dur="6s" repeatCount="indefinite"/></circle>
    <circle cx="1120" cy="400" r="6"><animate attributeName="r" values="6;9;6" dur="4.5s" repeatCount="indefinite"/></circle>
  </g>

  <!-- floating binary dots -->
  <g fill="#2563EB" opacity="0.4" font-family="Consolas, monospace" font-size="12">
    <text x="1170" y="230">1</text>
    <text x="1190" y="260">0</text>
    <text x="1160" y="290">1</text>
    <g>
      <circle cx="1180" cy="245" r="0" opacity="0"/>
    </g>
  </g>
  <g fill="#2563EB" opacity="0.5">
    <circle cx="1150" cy="330" r="3">
      <animate attributeName="cy" values="330;300;330" dur="7s" repeatCount="indefinite"/>
    </circle>
    <circle cx="1180" cy="380" r="3">
      <animate attributeName="cy" values="380;350;380" dur="9s" repeatCount="indefinite"/>
    </circle>
  </g>
</g>

</g>
</svg>
